<mxfile host="app.diagrams.net" modified="2024-01-13T04:36:25.641Z" agent="Mozilla/5.0 (Macintosh; Intel Mac OS X 10_15_7) AppleWebKit/537.36 (KHTML, like Gecko) Chrome/117.0.0.0 Safari/537.36" etag="JpsSBpBKzgwqYfNswTy7" version="22.1.17" type="github">
  <diagram name="Страница — 1" id="Whb_Yfb8a3z7KEr0mMTo">
    <mxGraphModel dx="578" dy="293" grid="1" gridSize="10" guides="1" tooltips="1" connect="1" arrows="1" fold="1" page="1" pageScale="1" pageWidth="827" pageHeight="1169" math="0" shadow="0">
      <root>
        <mxCell id="0" />
        <mxCell id="1" parent="0" />
        <mxCell id="JJPl2lqOMIJFjKvG3wdj-1" value="Пользователь mac os" style="shape=cube;whiteSpace=wrap;html=1;boundedLbl=1;backgroundOutline=1;darkOpacity=0.05;darkOpacity2=0.1;direction=east;flipH=1;size=10;verticalAlign=top;" parent="1" vertex="1">
          <mxGeometry x="170" y="50" width="160" height="120" as="geometry" />
        </mxCell>
        <mxCell id="JJPl2lqOMIJFjKvG3wdj-2" value="Сервер приложения" style="shape=cube;whiteSpace=wrap;html=1;boundedLbl=1;backgroundOutline=1;darkOpacity=0.05;darkOpacity2=0.1;direction=east;flipH=1;size=10;verticalAlign=top;" parent="1" vertex="1">
          <mxGeometry x="460" width="160" height="230" as="geometry" />
        </mxCell>
        <mxCell id="JJPl2lqOMIJFjKvG3wdj-3" value="Пользовательский интерфейс&amp;nbsp;&lt;br&gt;&quot;артифакт&quot;" style="rounded=0;whiteSpace=wrap;html=1;" parent="1" vertex="1">
          <mxGeometry x="180" y="90" width="120" height="60" as="geometry" />
        </mxCell>
        <mxCell id="JJPl2lqOMIJFjKvG3wdj-6" value="Backend&lt;br&gt;&quot;артифакт&quot;" style="rounded=0;whiteSpace=wrap;html=1;" parent="1" vertex="1">
          <mxGeometry x="470" y="50" width="120" height="60" as="geometry" />
        </mxCell>
        <mxCell id="JJPl2lqOMIJFjKvG3wdj-9" value="" style="endArrow=none;html=1;rounded=0;exitX=0;exitY=0;exitDx=0;exitDy=55;exitPerimeter=0;entryX=1.013;entryY=0.439;entryDx=0;entryDy=0;entryPerimeter=0;" parent="1" source="JJPl2lqOMIJFjKvG3wdj-1" target="JJPl2lqOMIJFjKvG3wdj-2" edge="1">
          <mxGeometry width="50" height="50" relative="1" as="geometry">
            <mxPoint x="390" y="280" as="sourcePoint" />
            <mxPoint x="440" y="230" as="targetPoint" />
          </mxGeometry>
        </mxCell>
        <mxCell id="FxUK5vvsO6kRMTRGPYGR-2" value="" style="whiteSpace=wrap;html=1;shape=mxgraph.basic.document" vertex="1" parent="1">
          <mxGeometry x="283.33" y="125" width="16.67" height="15" as="geometry" />
        </mxCell>
        <mxCell id="FxUK5vvsO6kRMTRGPYGR-5" value="База данных(.txt)&lt;br&gt;&quot;артифакт&quot;" style="rounded=0;whiteSpace=wrap;html=1;" vertex="1" parent="1">
          <mxGeometry x="470" y="125" width="120" height="60" as="geometry" />
        </mxCell>
        <mxCell id="FxUK5vvsO6kRMTRGPYGR-6" value="" style="whiteSpace=wrap;html=1;shape=mxgraph.basic.document" vertex="1" parent="1">
          <mxGeometry x="560" y="155" width="16.67" height="15" as="geometry" />
        </mxCell>
        <mxCell id="FxUK5vvsO6kRMTRGPYGR-8" value="" style="whiteSpace=wrap;html=1;shape=mxgraph.basic.document" vertex="1" parent="1">
          <mxGeometry x="560" y="60" width="16.67" height="15" as="geometry" />
        </mxCell>
      </root>
    </mxGraphModel>
  </diagram>
</mxfile>
